STARTFONT 2.3
FONT -FontForge-Satisfy-Book-R-Normal--24-240-72-72-P-104-ISO10646-1
SIZE 24 72 72  2
FONTBOUNDINGBOX 28 35 -5 -12
COMMENT "Generated by fontforge, http://fontforge.sourceforge.net"
COMMENT "Copyright (c) 2011 by Font Diner, Inc. All rights reserved."
STARTPROPERTIES 40
FOUNDRY "FontForge"
FAMILY_NAME "Satisfy"
WEIGHT_NAME "Book"
SLANT "R"
SETWIDTH_NAME "Normal"
ADD_STYLE_NAME ""
PIXEL_SIZE 24
POINT_SIZE 240
RESOLUTION_X 72
RESOLUTION_Y 72
SPACING "P"
AVERAGE_WIDTH 104
CHARSET_REGISTRY "ISO10646"
CHARSET_ENCODING "1"
FONTNAME_REGISTRY ""
CHARSET_COLLECTIONS "ISO10646-1"
BITS_PER_PIXEL 2
FONT_NAME "Satisfy-Regular"
FACE_NAME "Satisfy Regular"
COPYRIGHT "Copyright (c) 2011 by Font Diner, Inc. All rights reserved."
FONT_VERSION "1.001"
FONT_ASCENT 19
FONT_DESCENT 5
UNDERLINE_POSITION -2
UNDERLINE_THICKNESS 2
X_HEIGHT 9
CAP_HEIGHT 17
RAW_ASCENT 799
RAW_DESCENT 200
NORM_SPACE 7
RELATIVE_WEIGHT 40
RELATIVE_SETWIDTH 50
SUPERSCRIPT_X 0
SUPERSCRIPT_Y 11
SUPERSCRIPT_SIZE 15
SUBSCRIPT_X 0
SUBSCRIPT_Y 3
SUBSCRIPT_SIZE 15
AVG_LOWERCASE_WIDTH 98
AVG_UPPERCASE_WIDTH 136
ENDPROPERTIES
CHARS 227
STARTCHAR space
ENCODING 32
SWIDTH 280 0
DWIDTH 7 0
BBX 1 1 0 0
BITMAP
00
ENDCHAR
STARTCHAR exclam
ENCODING 33
SWIDTH 249 0
DWIDTH 6 0
BBX 8 19 -1 -1
BITMAP
0019
007D
007C
00B8
00F4
00F0
01F0
02E0
02D0
03C0
0780
0780
0B40
0F00
0900
0000
1900
7E00
1400
ENDCHAR
STARTCHAR quotedbl
ENCODING 34
SWIDTH 249 0
DWIDTH 6 0
BBX 7 8 1 10
BITMAP
0914
2D74
3CB4
78F0
74E0
B1D0
F2C0
5140
ENDCHAR
STARTCHAR numbersign
ENCODING 35
SWIDTH 417 0
DWIDTH 10 0
BBX 12 13 -1 2
BITMAP
001C28
003874
0074B0
0AFFF9
1FFAE9
00D2C0
01C380
2BFFF8
7BAFA4
070E00
0B1D00
0E2C00
040000
ENDCHAR
STARTCHAR dollar
ENCODING 36
SWIDTH 292 0
DWIDTH 7 0
BBX 9 19 -1 -1
BITMAP
000400
000D00
006D00
02E740
074280
0B02C0
0B0380
074500
038000
02D000
01E000
00B000
607400
A03400
B07400
3AD000
0E0000
0D0000
040000
ENDCHAR
STARTCHAR percent
ENCODING 37
SWIDTH 574 0
DWIDTH 14 0
BBX 14 19 0 -1
BITMAP
00500060
07F402D0
0E2C0780
2C1C0E00
381C2C00
342C7400
3474E000
2DE2C000
0B874000
000E0000
002C6E00
00B5E740
01E2C280
03C34280
0B470380
1E070740
3C074E00
B402F800
50005000
ENDCHAR
STARTCHAR ampersand
ENCODING 38
SWIDTH 460 0
DWIDTH 11 0
BBX 11 19 -1 -1
BITMAP
0001A4
000B68
001D28
002C74
0039E0
003FC0
007F00
007D00
01F800
07FC00
0F7C00
2E3C00
783D00
F42E04
F02E18
F01FA0
F81F80
7FFFC0
1647D0
ENDCHAR
STARTCHAR quotesingle
ENCODING 39
SWIDTH 113 0
DWIDTH 3 0
BBX 4 8 1 10
BITMAP
09
2D
3C
78
74
B0
F0
50
ENDCHAR
STARTCHAR parenleft
ENCODING 40
SWIDTH 234 0
DWIDTH 6 0
BBX 8 23 0 -3
BITMAP
0005
001D
0038
00B0
01D0
02C0
0740
0B00
0E00
1D00
2D00
3C00
3800
7800
7400
7400
B400
7400
7400
7400
3800
2800
0400
ENDCHAR
STARTCHAR parenright
ENCODING 41
SWIDTH 204 0
DWIDTH 5 0
BBX 8 23 -3 -3
BITMAP
0014
0018
001D
000D
000E
000E
000E
001E
001D
002D
002C
003C
0038
0074
00B0
00E0
01D0
02C0
0740
0E00
2D00
7400
5000
ENDCHAR
STARTCHAR asterisk
ENCODING 42
SWIDTH 327 0
DWIDTH 8 0
BBX 8 9 1 9
BITMAP
0040
01F0
75D0
BDDB
1BFF
0BD0
7DB4
2878
0010
ENDCHAR
STARTCHAR plus
ENCODING 43
SWIDTH 350 0
DWIDTH 8 0
BBX 8 9 0 4
BITMAP
0060
00E0
01D0
5AEA
FFFF
5380
0780
0740
0500
ENDCHAR
STARTCHAR comma
ENCODING 44
SWIDTH 200 0
DWIDTH 5 0
BBX 3 5 -1 -3
BITMAP
28
BC
7C
24
50
ENDCHAR
STARTCHAR hyphen
ENCODING 45
SWIDTH 353 0
DWIDTH 8 0
BBX 9 3 -1 6
BITMAP
055540
3FFFC0
655500
ENDCHAR
STARTCHAR period
ENCODING 46
SWIDTH 213 0
DWIDTH 5 0
BBX 4 3 -1 -1
BITMAP
29
BD
64
ENDCHAR
STARTCHAR slash
ENCODING 47
SWIDTH 262 0
DWIDTH 6 0
BBX 11 19 -2 -1
BITMAP
000018
000078
0000B0
0001D0
0003C0
000740
000E00
002C00
003800
00B000
01D000
02C000
074000
0F0000
1D0000
3C0000
B40000
F00000
400000
ENDCHAR
STARTCHAR zero
ENCODING 48
SWIDTH 489 0
DWIDTH 12 0
BBX 11 19 0 -1
BITMAP
000640
002FE0
00B4B0
02E074
03C038
0B4038
0F0038
1E0038
2D0078
3D0074
3C00B4
7C00F0
7C01E0
7C02D0
3C0780
3C0B40
2E2D00
0FF400
014000
ENDCHAR
STARTCHAR one
ENCODING 49
SWIDTH 272 0
DWIDTH 7 0
BBX 6 19 0 -1
BITMAP
0050
01F0
07F0
02E0
02D0
02D0
03C0
0380
0740
0B40
0B00
0E00
1D00
2D00
3C00
7800
7800
BC00
1400
ENDCHAR
STARTCHAR two
ENCODING 50
SWIDTH 448 0
DWIDTH 11 0
BBX 12 19 -1 -1
BITMAP
0006A0
002DBC
00F03D
02D02D
03D03D
02D03C
0000B8
0000F0
0002D0
000780
001E00
007C00
01F000
078000
1E0000
7C1500
BBFFD0
7FAFC0
140040
ENDCHAR
STARTCHAR three
ENCODING 51
SWIDTH 462 0
DWIDTH 11 0
BBX 11 19 0 -1
BITMAP
001A40
01FAE0
07C0B4
0F4078
0F00B8
0F40F4
0102E0
000780
002E00
01FD00
019B80
0002C0
0002D0
0003C0
640780
F40B40
F82E00
7FF800
069000
ENDCHAR
STARTCHAR four
ENCODING 52
SWIDTH 452 0
DWIDTH 11 0
BBX 10 19 0 -1
BITMAP
000050
0007F0
000BF0
002DE0
0078D0
01E1C0
0782C0
1F0380
7D0740
F96B90
BFFFE0
650F50
001E00
001E00
002D00
003D00
007D00
007D00
001400
ENDCHAR
STARTCHAR five
ENCODING 53
SWIDTH 444 0
DWIDTH 11 0
BBX 11 19 0 -1
BITMAP
000554
01FFFC
02EAFC
028014
034000
070000
0A0000
0D6A00
1EFF80
2F83C0
1E02C0
0002C0
000280
100340
740B00
F81D00
FFF800
7FE000
1A4000
ENDCHAR
STARTCHAR six
ENCODING 54
SWIDTH 477 0
DWIDTH 11 0
BBX 10 19 1 -1
BITMAP
000640
007BC0
01E1D0
03C2D0
0B4380
1E0000
2D1400
3DFE00
7B8780
BF0380
FE03C0
F403C0
F00780
F00B40
F00F00
B42D00
787800
2FE000
064000
ENDCHAR
STARTCHAR seven
ENCODING 55
SWIDTH 406 0
DWIDTH 10 0
BBX 10 19 1 -1
BITMAP
015540
2FFFE0
3E55E0
2002D0
000780
000E00
002D00
007800
00F000
02E000
03C000
0B8000
0F0000
2E0000
3D0000
7C0000
B80000
B80000
100000
ENDCHAR
STARTCHAR eight
ENCODING 56
SWIDTH 444 0
DWIDTH 11 0
BBX 12 19 -1 -1
BITMAP
000290
001E6C
00780D
00B00D
00F02D
00F078
00F5F0
00BFC0
007E00
00BF00
03DB80
0B47C0
1D03D0
3C02D0
7802D0
7803C0
380B40
1EBD00
059000
ENDCHAR
STARTCHAR nine
ENCODING 57
SWIDTH 462 0
DWIDTH 11 0
BBX 11 19 0 -1
BITMAP
000A40
007AD0
01E0B0
038074
0B4074
0F0074
1E00F4
1D01F4
2D02F0
1D07F0
1E0EE0
0FF9D0
0292C0
000780
200F00
702D00
7EF800
3FE000
050000
ENDCHAR
STARTCHAR colon
ENCODING 58
SWIDTH 226 0
DWIDTH 5 0
BBX 5 8 -1 -1
BITMAP
0640
1F80
0900
0000
0000
2900
BD00
6400
ENDCHAR
STARTCHAR semicolon
ENCODING 59
SWIDTH 212 0
DWIDTH 5 0
BBX 5 10 -1 -3
BITMAP
0A00
2F40
1900
0000
0000
2800
BC00
7C00
2400
5000
ENDCHAR
STARTCHAR less
ENCODING 60
SWIDTH 271 0
DWIDTH 7 0
BBX 7 11 0 2
BITMAP
0014
01F4
07D0
1F40
BC00
F400
B800
3C00
1E00
0B40
0100
ENDCHAR
STARTCHAR equal
ENCODING 61
SWIDTH 374 0
DWIDTH 9 0
BBX 9 6 0 5
BITMAP
16AA40
3FFF80
140000
5AA900
FFFE00
400000
ENDCHAR
STARTCHAR greater
ENCODING 62
SWIDTH 250 0
DWIDTH 6 0
BBX 7 11 -1 2
BITMAP
0500
0B80
03D0
01E0
00B4
00B8
02F4
0B80
2E00
B400
4000
ENDCHAR
STARTCHAR question
ENCODING 63
SWIDTH 413 0
DWIDTH 10 0
BBX 12 19 -1 -1
BITMAP
001AA0
01FEBD
07D01F
0B800F
07800F
01401E
00003D
0000B8
0006E0
01BF40
03E400
07C000
078000
0B4000
0E0000
000000
1A0000
7F0000
290000
ENDCHAR
STARTCHAR at
ENCODING 64
SWIDTH 648 0
DWIDTH 16 0
BBX 16 17 -1 -1
BITMAP
00005500
001BABD0
00B90074
02D0141C
0B41FD8E
1E0B4FCB
2C1D1F87
78381B07
74B00A07
B0E01D0B
B0E02C0E
74E1B42D
38BFB078
2D1471E0
0B407F80
01F81900
00140000
ENDCHAR
STARTCHAR A
ENCODING 65
SWIDTH 552 0
DWIDTH 13 0
BBX 14 24 -2 -6
BITMAP
00000690
00002FE0
0000B4B0
0001D0A0
000380E0
000B41E0
001E01D0
002D02D0
003C03C0
007803C0
00B40780
00F00780
01F55B40
1BFFFFE0
BFD55F80
0BC00F00
0F801E00
1F401E00
2F002E00
3E002E00
7D002E00
F8002F00
40002F40
00001400
ENDCHAR
STARTCHAR B
ENCODING 66
SWIDTH 607 0
DWIDTH 15 0
BBX 14 23 0 -5
BITMAP
001EA400
01BEAF80
0BFC03D0
0BB802F0
05B402F0
00F002E0
01E003D0
01D00BC0
02D01F40
03C07D00
07AAF400
0BFFF400
0F682D00
0F000F00
1E000F40
2D000F80
3D001F40
7C002F00
B8007E00
F801FC00
F40BE000
BFFE4000
05500000
ENDCHAR
STARTCHAR C
ENCODING 67
SWIDTH 548 0
DWIDTH 13 0
BBX 14 23 0 -5
BITMAP
0001A900
000BAB40
003E03C0
00F803D0
02F003D0
07D007D0
0B800BC0
0F402F80
2F000A00
3E000000
7D000000
7C000000
BC000000
F8000000
F8000000
F8000000
F8000000
B8001800
BC003400
3D01E000
1F9B8000
07FE0000
00500000
ENDCHAR
STARTCHAR D
ENCODING 68
SWIDTH 632 0
DWIDTH 15 0
BBX 15 23 0 -5
BITMAP
001A5000
02FFF900
07E56F40
060007C0
007402D0
01F401F0
01F001F0
01F000F4
02E000F4
03D001F4
03D001F4
07C002F0
078002E0
0B4003D0
0F4007C0
1F000F40
1E002F00
2D007D00
3C00F400
7807E000
F96F4000
7FF80000
05400000
ENDCHAR
STARTCHAR E
ENCODING 69
SWIDTH 523 0
DWIDTH 13 0
BBX 14 23 -1 -5
BITMAP
00006A00
000BE6D0
002E00E0
00B800F0
01F001E0
03E002D0
03D00BC0
07D00640
03E00000
02F00000
00B94000
007FD000
02D14000
1F400000
3D000000
7C000000
B8000200
BC000A00
BC001C00
7E007400
2F96E000
07FF4000
00540000
ENDCHAR
STARTCHAR F
ENCODING 70
SWIDTH 585 0
DWIDTH 14 0
BBX 13 23 1 -5
BITMAP
005AA400
0BFEBF40
3E400780
B8000780
FD400740
BF800F00
1A001D00
00003C00
00007400
0015F000
1FFFFF00
2E57D500
00078000
000F4000
001F0000
002E0000
007D0000
00BC0000
00F80000
00F80000
01F40000
01F40000
00400000
ENDCHAR
STARTCHAR G
ENCODING 71
SWIDTH 612 0
DWIDTH 15 0
BBX 14 23 0 -5
BITMAP
00006900
0007EB80
001F42C0
007D02D0
00F402D0
02F003D0
03D00BC0
0BC01F80
0F800B00
1F400000
2F000000
3E000000
7D06BFE0
7D0AAF90
BC000B00
BC000E00
BC001D00
7C003C00
7C00B400
3D01E000
1E078000
07FE0000
01640000
ENDCHAR
STARTCHAR H
ENCODING 72
SWIDTH 649 0
DWIDTH 16 0
BBX 16 23 0 -5
BITMAP
00040000
007C002E
00B8003D
00F4007C
00F000B8
01E000F4
02E001F0
02D001E0
03C002D0
078003C0
0B95ABD4
1FFFFFF8
2F6E0BA0
1E078F00
1E01DE00
2D00FD00
3D00BD00
7C007C00
7C007800
B8007800
F800B800
F400B400
50000000
ENDCHAR
STARTCHAR I
ENCODING 73
SWIDTH 537 0
DWIDTH 13 0
BBX 15 23 -2 -5
BITMAP
00000180
00002FE0
0000B8E0
0001F0E0
0002E1E0
0003D1E0
0007C2D0
0007C3D0
000783C0
00038780
0002CB80
00018F40
00001F00
005AFFF4
07FE7D00
2F903C00
7D007800
B800B000
B800E000
7D02C000
2F474000
0BFD0000
00500000
ENDCHAR
STARTCHAR J
ENCODING 74
SWIDTH 500 0
DWIDTH 12 0
BBX 16 23 -2 -5
BITMAP
00005694
0003FFFF
000256D5
000003C0
000007C0
00000B80
00000B40
00000F40
00001F00
00002E00
00003E00
00903D00
07F07C00
0FE0BC00
2F40F800
3D00F400
B801F000
B002D000
F007C000
F00B4000
B41E0000
2DB80000
06900000
ENDCHAR
STARTCHAR K
ENCODING 75
SWIDTH 497 0
DWIDTH 12 0
BBX 14 25 -1 -7
BITMAP
00050050
003D01F0
007C02E0
00B802E0
00F403D0
01F00B80
01E01F40
02D03E00
03C0B800
0782E000
0B4B8000
0BBD0000
1FFA8000
1F57E000
1E01F000
2D00F000
3D01F000
3C02E000
7C03D000
B807C000
F80B8000
F80B8000
4007C000
0002FA40
00006900
ENDCHAR
STARTCHAR L
ENCODING 76
SWIDTH 492 0
DWIDTH 12 0
BBX 16 23 -3 -5
BITMAP
00000068
000002FE
000007DE
00000F5E
00001E2D
00002D78
00003EF0
00007FD0
01AAFE00
00BFF800
0000F400
0000F000
0001E000
0002D000
0003C000
00078000
000B4000
000E0000
1BFD0000
7EFE0010
7AEBE5A0
2E42FFD0
00001A40
ENDCHAR
STARTCHAR M
ENCODING 77
SWIDTH 733 0
DWIDTH 18 0
BBX 21 23 -3 -5
BITMAP
000005000500
00003E002F40
00007E007F40
0000BE00BF00
0000EE01EB00
0001DE02DE00
0002CE039D00
0003CE0B6D00
00079E0E2C00
000B5E1D3800
000F1D3C7800
001F1D74B400
061E2DB0B400
0D2D2DE0F000
1C3D2FD1E000
383C1FC1E000
34781F82D000
74B81F43D000
74F40A03D000
75F00007D000
3FE00007E000
2FC00002F400
050000005000
ENDCHAR
STARTCHAR N
ENCODING 78
SWIDTH 541 0
DWIDTH 13 0
BBX 16 23 -1 -5
BITMAP
00100019
00B800BF
00F801F3
01FC02D3
01FC03CB
02EC079D
03AC0BB8
03AC2FD0
075C0F00
0B1C0F00
0F1C1E00
0E1D1D00
1D1D2D00
2D1D2C00
3C0D3C00
3C0E3800
780E7800
B80EB400
B80BF000
F807E000
F807E000
BC02D000
10000000
ENDCHAR
STARTCHAR O
ENCODING 79
SWIDTH 567 0
DWIDTH 14 0
BBX 13 23 0 -5
BITMAP
00069400
002FFD00
00BA1E00
01F00F00
02D00F40
07800B40
0B400B40
1F000B40
2E000B40
3D000B40
3C000F40
7C000F00
78001F00
B8001E00
B8002D00
B8003C00
B8007800
B800F400
B801E000
7C03C000
2D1F4000
0FFD0000
01900000
ENDCHAR
STARTCHAR P
ENCODING 80
SWIDTH 552 0
DWIDTH 13 0
BBX 15 22 -1 -4
BITMAP
0005AA00
006FABD0
02FC01F0
0BAC00F4
063800B8
003800B8
007400F4
00B000F4
00F002E0
01E007D0
01D01F40
02D07D00
03D7E400
07FE4000
0B800000
0B400000
0F400000
1F000000
2E000000
3D000000
7C000000
F8000000
ENDCHAR
STARTCHAR Q
ENCODING 81
SWIDTH 583 0
DWIDTH 14 0
BBX 13 23 0 -5
BITMAP
0001A400
001FAE00
00BD0B00
01F00780
03D003C0
0B8003C0
0F4003C0
1F0003C0
2E0003C0
3D0007C0
7C000780
7C000B40
7C000F00
7C001E00
3D003D00
1F407C00
0640F400
0152E000
1FFFD000
2D1FC000
3D7EF400
2FE42E40
05400540
ENDCHAR
STARTCHAR R
ENCODING 82
SWIDTH 560 0
DWIDTH 13 0
BBX 15 24 -1 -6
BITMAP
0001AA40
006FABD0
02FD01F4
07AD00B8
022C00B8
003800B8
007800B8
00B400F4
00B001F0
00F003D0
01E00F80
07F87E00
0FEFF400
07FFC000
07C2D000
0B81E000
0B80E000
0F40F000
1F00F000
2E00F400
3E00F400
BC00B800
00007F80
00002A00
ENDCHAR
STARTCHAR S
ENCODING 83
SWIDTH 474 0
DWIDTH 11 0
BBX 13 23 -1 -5
BITMAP
0006A900
002F9F40
00B80780
02E007C0
03C00780
07C00B80
07C00F40
03D00400
02F40000
00FC0000
007F0000
001F8000
000BC000
0003D000
0002E000
0001E000
6801D000
F401D000
F402C000
F8074000
7D1E0000
2FF80000
06900000
ENDCHAR
STARTCHAR T
ENCODING 84
SWIDTH 423 0
DWIDTH 10 0
BBX 13 23 0 -5
BITMAP
00555500
2FFFFFC0
7FAF5540
101F0000
002E0000
002D0000
003C0000
00780000
00B80000
00B40000
00F00000
01E00000
01E00000
02D00000
03C00000
07C00000
07800000
0B800000
0F400000
0F400000
1F000000
2F000000
04000000
ENDCHAR
STARTCHAR U
ENCODING 85
SWIDTH 574 0
DWIDTH 14 0
BBX 15 23 0 -5
BITMAP
00000014
00B800F4
01F401F0
02F002E0
03E003D0
07D007D0
0BC00BC0
0F800B80
0F400F40
1F001F00
2E001E00
2D002D00
3C003D00
7C003C00
78007800
B800B800
B400F800
B402F400
B403F400
B80BB400
7E6DB400
2FF47800
05400000
ENDCHAR
STARTCHAR V
ENCODING 86
SWIDTH 503 0
DWIDTH 12 0
BBX 13 23 1 -5
BITMAP
01000500
1F400F40
2F001F40
2D002E00
3C007C00
7C00B800
7800F400
B401F000
B402E000
B403D000
F007C000
F00B8000
F00F4000
F01F0000
B01E0000
B02C0000
B0380000
74740000
74B00000
39D00000
2FC00000
1F400000
05000000
ENDCHAR
STARTCHAR W
ENCODING 87
SWIDTH 817 0
DWIDTH 20 0
BBX 20 23 0 -5
BITMAP
0014000028
00F801007D
01F00B407D
03D01F007D
07C02F007C
0B803E007C
0F403E007C
0F003D0078
1E007C00B8
2D007800B4
3C007800F0
3C00B401E0
3800F401E0
7801F402D0
7402F003C0
7403F00740
740BB00B00
740E701E00
782D742C00
3C78787400
2EF03EE000
1FD02FC000
0500050000
ENDCHAR
STARTCHAR X
ENCODING 88
SWIDTH 579 0
DWIDTH 14 0
BBX 17 23 -1 -5
BITMAP
01A4000240
07BC001FC0
0A2D003E00
0D0E00B800
0E0F01F000
0F9F07D000
07FB4B4000
01975E0000
0007BC0000
0003F40000
0003E00000
0003C00000
000BC00000
001FC00000
003EC00000
00B6D00000
01E1D00000
03D1E00000
0B80F00000
1F00B40800
7D00797400
B8002FD000
0000050000
ENDCHAR
STARTCHAR Y
ENCODING 89
SWIDTH 532 0
DWIDTH 13 0
BBX 14 23 0 -5
BITMAP
00500190
02F003D0
03E007D0
07C007C0
0B800B80
0B400F40
0F000F00
1F001E00
2E002E00
2D003D00
3C007C00
3C00F800
7C02F800
3C07B400
3E6DB000
1FE4E000
0001D000
0002C000
00078000
781F0000
BFBD0000
7FF40000
05400000
ENDCHAR
STARTCHAR Z
ENCODING 90
SWIDTH 455 0
DWIDTH 11 0
BBX 14 22 -2 -4
BITMAP
00155540
00BFFFE0
00FA96F0
004002E0
000003D0
00000B80
00001F40
00003E00
0000B800
0002F000
0007C000
001F4000
003D0000
00B80000
02E00000
07C00000
0F400000
2E000000
3C000000
B56AA400
FFFFF800
BEAAF000
ENDCHAR
STARTCHAR bracketleft
ENCODING 91
SWIDTH 202 0
DWIDTH 5 0
BBX 8 23 -1 -3
BITMAP
002F
007E
00B4
00E0
00E0
01D0
02C0
0380
0740
0740
0B00
0E00
1D00
1D00
2C00
3800
3800
7400
B000
B000
F000
F900
A800
ENDCHAR
STARTCHAR backslash
ENCODING 92
SWIDTH 273 0
DWIDTH 7 0
BBX 5 19 1 -1
BITMAP
5000
F000
F000
B000
B400
7400
7400
3800
3800
2C00
2C00
2D00
1D00
1E00
0E00
0F00
0B40
0B40
0100
ENDCHAR
STARTCHAR bracketright
ENCODING 93
SWIDTH 216 0
DWIDTH 5 0
BBX 9 23 -3 -3
BITMAP
001B80
001BC0
000380
000380
000740
000700
000B00
000E00
000D00
001D00
002C00
003800
003400
007400
00B000
00E000
01D000
01D000
02C000
038000
0B4000
3F0000
690000
ENDCHAR
STARTCHAR asciicircum
ENCODING 94
SWIDTH 287 0
DWIDTH 7 0
BBX 9 10 -1 8
BITMAP
000500
003E00
00BE00
01DB00
03CB00
074B00
0E0B40
2C0740
780780
100100
ENDCHAR
STARTCHAR underscore
ENCODING 95
SWIDTH 439 0
DWIDTH 11 0
BBX 13 3 -3 -1
BITMAP
2AAAA940
BFFFFF40
10000100
ENDCHAR
STARTCHAR grave
ENCODING 96
SWIDTH 567 0
DWIDTH 14 0
BBX 5 4 6 13
BITMAP
1000
B800
2F00
0240
ENDCHAR
STARTCHAR a
ENCODING 97
SWIDTH 435 0
DWIDTH 10 0
BBX 14 11 -1 -1
BITMAP
00290000
01EF0000
078B4000
0F074000
1D074050
3C0B01C0
7C0F0340
782E0900
7EAA2800
3F87E000
04014000
ENDCHAR
STARTCHAR b
ENCODING 98
SWIDTH 415 0
DWIDTH 10 0
BBX 13 18 0 -1
BITMAP
00A00000
02E00000
03E00000
07D00000
0BC00000
0F800000
1F400000
2F000000
3E090000
7D3E0640
7C2FF800
B40E0000
B01D0000
B02C0000
B0740000
75E00000
3F800000
05000000
ENDCHAR
STARTCHAR c
ENCODING 99
SWIDTH 363 0
DWIDTH 9 0
BBX 12 11 -1 -1
BITMAP
00A900
03DA00
0F5E00
1D2D00
3C0005
38000C
780034
3800D0
2D0740
1FFD00
029000
ENDCHAR
STARTCHAR d
ENCODING 100
SWIDTH 483 0
DWIDTH 12 0
BBX 15 18 -1 -1
BITMAP
00000600
00000F40
00001F40
00002F40
00003F00
00007E00
00007D00
0054BC00
02EDF800
0B47F000
1E03E000
2C02C014
38038020
340740D0
781F0240
3DBB5D00
2F83F400
04014000
ENDCHAR
STARTCHAR e
ENCODING 101
SWIDTH 372 0
DWIDTH 9 0
BBX 11 11 0 -1
BITMAP
01A400
0BBC00
1D3800
387400
B5D004
FB4024
F800A0
F00280
B81E00
7FF400
064000
ENDCHAR
STARTCHAR f
ENCODING 102
SWIDTH 325 0
DWIDTH 8 0
BBX 13 29 -3 -12
BITMAP
00068000
000BC000
000B8000
000B8000
000B4000
000F0000
000E0000
001D0000
002C0000
00380000
0079AE80
00BE4000
02E00000
03D00000
02E00000
02F80000
039E0000
074B4000
0B038000
0B038000
0E038000
1D038000
2D074000
2C0F0000
382D0000
78B80000
7FE00000
3F800000
04000000
ENDCHAR
STARTCHAR g
ENCODING 103
SWIDTH 459 0
DWIDTH 11 0
BBX 14 22 -1 -12
BITMAP
00640000
02EDB000
0B47E000
1E07D000
2C03D010
3C02C090
38038280
3C0B8A00
2E6FB800
1FEBD000
011F0000
007E0000
02ED0000
0B6C0000
2D2C0000
38380000
74780000
74B40000
74F00000
3AE00000
1FC00000
06400000
ENDCHAR
STARTCHAR h
ENCODING 104
SWIDTH 465 0
DWIDTH 11 0
BBX 13 18 0 -1
BITMAP
01400000
03D00000
03D00000
03C00000
07800000
0B400000
0B000000
0F050000
1E7F4000
2EDB4000
2E0B4000
3C0B0040
780E0180
741D0600
B02C2800
F03DA000
E02F8000
50040000
ENDCHAR
STARTCHAR i
ENCODING 105
SWIDTH 274 0
DWIDTH 7 0
BBX 9 17 0 -1
BITMAP
004000
02C000
03C000
000000
000000
000000
010000
1F0000
2E0000
3D0000
7C0140
780700
741D00
B07400
75D000
2F4000
040000
ENDCHAR
STARTCHAR j
ENCODING 106
SWIDTH 267 0
DWIDTH 6 0
BBX 14 27 -5 -11
BITMAP
00002400
0000B800
0000B000
00000000
00000000
00000000
00000000
0003C000
00078000
000B4000
000F0050
001E0180
001E0700
002D2C00
003CA000
003F8000
007D0000
01F40000
07F40000
1EF00000
39E00000
B5D00000
E2C00000
E3800000
A7400000
7F000000
19000000
ENDCHAR
STARTCHAR k
ENCODING 107
SWIDTH 440 0
DWIDTH 11 0
BBX 13 18 -1 -1
BITMAP
00640000
00F40000
01F00000
01F00000
01E00000
02D00000
03C00000
03814000
075FC000
0B76C000
0B828000
0F5A0040
1CFD0080
2C9E0340
380E0A00
341D2800
741FE000
100A4000
ENDCHAR
STARTCHAR l
ENCODING 108
SWIDTH 218 0
DWIDTH 5 0
BBX 7 18 -1 -1
BITMAP
0050
00F4
00F4
01F0
01E0
02D0
03C0
07C0
0780
0B40
0F00
0F00
1E00
2D00
3C00
3C00
7800
1000
ENDCHAR
STARTCHAR m
ENCODING 109
SWIDTH 717 0
DWIDTH 17 0
BBX 19 11 0 -1
BITMAP
0001004000
1A1F47E000
1EBF9FF000
2F87F4F000
3F07D1F008
3D0B81E018
7C0B02D070
B80E03D1D0
F41D03C740
F02D03FD00
4010019000
ENDCHAR
STARTCHAR n
ENCODING 110
SWIDTH 461 0
DWIDTH 11 0
BBX 14 11 -1 -1
BITMAP
00010000
079FC000
0BBBD000
0FD2D000
0F43C020
1E038090
2D078180
2C0B4700
3C0F1D00
780BF400
50014000
ENDCHAR
STARTCHAR o
ENCODING 111
SWIDTH 393 0
DWIDTH 9 0
BBX 12 11 0 -1
BITMAP
014000
1FF400
2D2C01
7C1C19
BD1DA0
EFAF40
E2FC00
E07400
E1F000
7FC000
150000
ENDCHAR
STARTCHAR p
ENCODING 112
SWIDTH 451 0
DWIDTH 11 0
BBX 16 20 -3 -10
BITMAP
00101000
00B9FC00
007BAD00
00BD1D00
00F41D01
00E02C09
01D07824
02E4B4A0
03FFE680
03BFFE00
07595000
0B400000
0F000000
0E000000
1E000000
2D000000
3C000000
3C000000
78000000
78000000
ENDCHAR
STARTCHAR q
ENCODING 113
SWIDTH 462 0
DWIDTH 11 0
BBX 12 21 0 -11
BITMAP
005000
07B6D0
1E1FC0
3C0F80
B40B40
F40B00
F00F01
F02E06
F07D18
BEEC34
1A2CD0
003B40
007D00
00B400
00F000
01E000
03E000
03E000
03E000
02E000
009000
ENDCHAR
STARTCHAR r
ENCODING 114
SWIDTH 406 0
DWIDTH 10 0
BBX 14 12 -2 -1
BITMAP
00B40000
01F80000
02F40000
01FF8000
02D7C000
0743C050
0A0780D0
1D0F0240
281D0A00
702C2800
902FE000
000A4000
ENDCHAR
STARTCHAR s
ENCODING 115
SWIDTH 351 0
DWIDTH 8 0
BBX 7 12 0 -1
BITMAP
0180
07D0
0FC0
0F80
1EC0
35E0
90F0
00B4
2478
7C74
3ED0
1A40
ENDCHAR
STARTCHAR t
ENCODING 116
SWIDTH 301 0
DWIDTH 7 0
BBX 12 18 -2 -1
BITMAP
000900
001E00
002E00
003E50
BFFFFF
15BC05
00B800
00F400
01F000
01E000
02D000
03C008
034018
030070
0701C0
038740
02FD00
005000
ENDCHAR
STARTCHAR u
ENCODING 117
SWIDTH 468 0
DWIDTH 11 0
BBX 13 10 0 -1
BITMAP
1E078000
3C0B4000
780F4000
B41F0080
B01E0180
F02D0700
F02D1D00
F5BE7400
7FCBD000
05010000
ENDCHAR
STARTCHAR v
ENCODING 118
SWIDTH 427 0
DWIDTH 10 0
BBX 13 11 0 -1
BITMAP
00014000
3807C000
B80F8000
B41F4140
B41E5A00
B02FE400
B0740000
B4E00000
7A800000
3F000000
04000000
ENDCHAR
STARTCHAR w
ENCODING 119
SWIDTH 646 0
DWIDTH 16 0
BBX 18 11 0 -1
BITMAP
0402004000
2D0B42D000
3C0F07D000
781E07C060
B81D07D680
B41C07F900
B0280B0000
B0381D0000
B09D3C0000
7F4BF00000
1501400000
ENDCHAR
STARTCHAR x
ENCODING 120
SWIDTH 399 0
DWIDTH 10 0
BBX 12 11 -1 -1
BITMAP
090080
0F03E0
0B4B80
03AE00
02F800
02E000
07E005
1EB028
7C79A0
F03F80
401500
ENDCHAR
STARTCHAR y
ENCODING 121
SWIDTH 406 0
DWIDTH 10 0
BBX 10 20 -1 -10
BITMAP
000040
0F02E0
0F02E0
1E02D0
2D03C0
3C0B80
780F40
782F00
78BF00
3FDE00
065D00
002C00
002C00
003800
007800
00B400
00F000
00F000
01E000
01D000
ENDCHAR
STARTCHAR z
ENCODING 122
SWIDTH 448 0
DWIDTH 11 0
BBX 13 21 -1 -11
BITMAP
00159000
01FFF400
0294E000
0001D000
0003C000
000B4040
001E0080
007EC740
00F9ED00
0091E000
001FC000
00B6C000
07838000
0E0B4000
2C0F0000
742D0000
B03C0000
B0B40000
B6E00000
7F800000
15000000
ENDCHAR
STARTCHAR braceleft
ENCODING 123
SWIDTH 243 0
DWIDTH 6 0
BBX 9 23 -1 -3
BITMAP
000680
002F40
007E00
00B000
00E000
00E000
00E000
00E000
00E000
02D000
0F4000
1E0000
074000
074000
070000
0E0000
1D0000
380000
740000
780000
7E0000
2F0000
060000
ENDCHAR
STARTCHAR bar
ENCODING 124
SWIDTH 253 0
DWIDTH 6 0
BBX 6 19 0 -1
BITMAP
0060
00E0
01E0
02D0
02C0
0380
0740
0700
0B00
0E00
1D00
1D00
2C00
3C00
7800
7800
B400
F400
5000
ENDCHAR
STARTCHAR braceright
ENCODING 125
SWIDTH 243 0
DWIDTH 6 0
BBX 9 23 -3 -3
BITMAP
000900
001F40
001FC0
0003C0
0002C0
000380
000B00
001D00
002C00
002800
002C00
000E00
002E00
00B000
00E000
00D000
00D000
00E000
00E000
02D000
1BC000
3F4000
680000
ENDCHAR
STARTCHAR asciitilde
ENCODING 126
SWIDTH 329 0
DWIDTH 8 0
BBX 10 3 -1 7
BITMAP
1A9090
BFFFD0
601A40
ENDCHAR
STARTCHAR uni00A0
ENCODING 160
SWIDTH 280 0
DWIDTH 7 0
BBX 1 1 0 0
BITMAP
00
ENDCHAR
STARTCHAR exclamdown
ENCODING 161
SWIDTH 249 0
DWIDTH 6 0
BBX 8 19 -1 -1
BITMAP
0018
00BD
0064
0000
0070
00F0
01E0
02D0
02D0
03C0
0780
0B80
0F40
0F00
1F00
2E00
3D00
7D00
6400
ENDCHAR
STARTCHAR cent
ENCODING 162
SWIDTH 322 0
DWIDTH 8 0
BBX 8 18 0 0
BITMAP
0004
0028
0024
01BD
0787
1E1F
2C2F
782D
B014
E000
E000
D000
E000
A024
7990
1E40
1D00
1C00
ENDCHAR
STARTCHAR sterling
ENCODING 163
SWIDTH 318 0
DWIDTH 8 0
BBX 10 16 -1 1
BITMAP
000500
006FC0
00E0D0
01C0D0
0287C0
034B40
074000
070000
2FA400
2FA000
1D0000
2C0000
380000
705000
FFFC00
A55400
ENDCHAR
STARTCHAR currency
ENCODING 164
SWIDTH 347 0
DWIDTH 8 0
BBX 9 9 0 4
BITMAP
140140
1DAB40
0BAD00
091800
1C2800
1C7400
7FF800
E01C00
400400
ENDCHAR
STARTCHAR yen
ENCODING 165
SWIDTH 326 0
DWIDTH 8 0
BBX 10 15 0 1
BITMAP
090090
1D02C0
1D0340
0D0A00
0A1D00
0B7400
07E000
038000
1BA000
6BA000
1B9000
AF9000
1D0000
1C0000
140000
ENDCHAR
STARTCHAR brokenbar
ENCODING 166
SWIDTH 253 0
DWIDTH 6 0
BBX 6 19 0 -1
BITMAP
0060
00E0
01E0
02D0
02C0
0380
0740
0B40
0000
0000
0900
1D00
2C00
3C00
7800
7800
B400
F400
5000
ENDCHAR
STARTCHAR section
ENCODING 167
SWIDTH 297 0
DWIDTH 7 0
BBX 10 19 -1 -1
BITMAP
001A40
01E1C0
0381D0
0742C0
038140
01D000
00B400
06EC00
1E0E00
2C0E00
2C1D00
1D7800
079000
01E000
147400
B43800
B07400
75E000
064000
ENDCHAR
STARTCHAR dieresis
ENCODING 168
SWIDTH 567 0
DWIDTH 14 0
BBX 7 2 5 14
BITMAP
6464
F4F4
ENDCHAR
STARTCHAR copyright
ENCODING 169
SWIDTH 456 0
DWIDTH 11 0
BBX 12 13 0 5
BITMAP
001540
01E9A0
074028
1D1F4D
28758A
74E24A
71C00A
B2800E
71C21D
34E928
2810B0
0B5780
01A900
ENDCHAR
STARTCHAR ordfeminine
ENCODING 170
SWIDTH 373 0
DWIDTH 9 0
BBX 12 13 -2 -1
BITMAP
001900
007F00
01D740
078380
0B0340
0E0700
1E0B06
1E6A18
0FE7A0
050140
055540
3FFFC0
655500
ENDCHAR
STARTCHAR guillemotleft
ENCODING 171
SWIDTH 346 0
DWIDTH 8 0
BBX 9 11 -1 -1
BITMAP
000040
01D280
074A00
1E2C00
38B400
B5E000
74F000
2C7400
1D2800
0A1C00
010400
ENDCHAR
STARTCHAR logicalnot
ENCODING 172
SWIDTH 512 0
DWIDTH 12 0
BBX 12 6 0 4
BITMAP
16AA95
FFFFFE
54000E
00001D
00002C
000038
ENDCHAR
STARTCHAR sfthyphen
ENCODING 173
SWIDTH 353 0
DWIDTH 8 0
BBX 9 3 -1 6
BITMAP
055540
3FFFC0
655500
ENDCHAR
STARTCHAR registered
ENCODING 174
SWIDTH 456 0
DWIDTH 11 0
BBX 12 13 0 5
BITMAP
001540
01E9A0
074528
1D7A4D
28718A
74624A
70BA0A
B0AC0E
70C91D
35C768
2801B0
0B5780
01A900
ENDCHAR
STARTCHAR macron
ENCODING 175
SWIDTH 567 0
DWIDTH 14 0
BBX 6 2 5 14
BITMAP
2AA0
BFE0
ENDCHAR
STARTCHAR degree
ENCODING 176
SWIDTH 144 0
DWIDTH 3 0
BBX 4 3 1 13
BITMAP
3D
AA
68
ENDCHAR
STARTCHAR twosuperior
ENCODING 178
SWIDTH 268 0
DWIDTH 6 0
BBX 8 12 0 6
BITMAP
01A8
076D
0E1D
0E2C
0038
00B0
01D0
0B40
2D00
7A90
BFF0
1010
ENDCHAR
STARTCHAR threesuperior
ENCODING 179
SWIDTH 262 0
DWIDTH 6 0
BBX 8 12 0 6
BITMAP
01A4
0B6C
1D1D
1E2C
0074
02E0
06B0
0034
1074
74A0
7FD0
0500
ENDCHAR
STARTCHAR acute
ENCODING 180
SWIDTH 567 0
DWIDTH 14 0
BBX 5 4 6 13
BITMAP
0100
0B40
7E00
A400
ENDCHAR
STARTCHAR mu
ENCODING 181
SWIDTH 453 0
DWIDTH 11 0
BBX 14 14 -3 -5
BITMAP
00502400
01D0B400
02C0F400
0381F000
0741E010
0B41D060
0F42C080
0F9AE640
1FF8BE00
2D001000
3C000000
78000000
B4000000
90000000
ENDCHAR
STARTCHAR paragraph
ENCODING 182
SWIDTH 411 0
DWIDTH 10 0
BBX 12 19 0 -1
BITMAP
000204
006BBE
0BFFFD
1FFE74
3FFD70
7FFCA0
7FFCE0
3FF8D0
1FF5C0
01B2C0
00B280
00A340
00D340
01D700
02CA00
028A00
034D00
0B6C00
051000
ENDCHAR
STARTCHAR periodcentered
ENCODING 183
SWIDTH 168 0
DWIDTH 4 0
BBX 4 3 0 7
BITMAP
04
7D
B8
ENDCHAR
STARTCHAR cedilla
ENCODING 184
SWIDTH 567 0
DWIDTH 14 0
BBX 5 7 6 -4
BITMAP
0400
3800
7900
5B40
0B40
6900
4000
ENDCHAR
STARTCHAR onesuperior
ENCODING 185
SWIDTH 150 0
DWIDTH 4 0
BBX 5 12 0 6
BITMAP
0240
0B40
0B40
0B00
0A00
0D00
1D00
1C00
2800
3800
7800
1000
ENDCHAR
STARTCHAR ordmasculine
ENCODING 186
SWIDTH 319 0
DWIDTH 8 0
BBX 11 13 -2 -1
BITMAP
001000
01FD00
038704
0B8758
0F87A0
0DFF80
1D1E00
0D1D00
0BB800
029000
055400
7FFD00
655400
ENDCHAR
STARTCHAR guillemotright
ENCODING 187
SWIDTH 346 0
DWIDTH 8 0
BBX 10 11 -2 -1
BITMAP
040000
0A1C00
070E00
038B40
02D380
01E2D0
02C780
0B5E00
1D3800
74A000
404000
ENDCHAR
STARTCHAR onequarter
ENCODING 188
SWIDTH 579 0
DWIDTH 14 0
BBX 14 19 -1 -1
BITMAP
00900060
02E001E0
02D00380
01C00B00
02801D00
03803800
0340B000
0701D0A0
0A0782E0
0E0A0BD0
0E2D1DD0
057875C0
00F1E6C0
02D1FFD0
07804380
0F000740
2D000B40
78000B00
50000500
ENDCHAR
STARTCHAR onehalf
ENCODING 189
SWIDTH 603 0
DWIDTH 14 0
BBX 15 19 -1 -1
BITMAP
00500060
02E001E0
01D003C0
01C00B40
02C01D00
02803800
0340B000
0701D1A4
0B038A78
0E0B1D3C
0E1D1D38
05380074
00B000E0
01D00380
03800E00
0B003800
2D00BA90
7C00FFE0
50005050
ENDCHAR
STARTCHAR threequarters
ENCODING 190
SWIDTH 669 0
DWIDTH 16 0
BBX 16 19 0 -1
BITMAP
01A40009
0B6C0078
1D1D00B0
1E2C02D0
00740780
02E00E00
06B02C00
00347418
1074E0BC
74A2C1F8
7FD74774
050E1E34
002C79B4
00747FF8
00E010E4
02C000D0
078001D0
0F0002D0
14000040
ENDCHAR
STARTCHAR questiondown
ENCODING 191
SWIDTH 413 0
DWIDTH 10 0
BBX 12 19 -2 -1
BITMAP
00001A
00003F
000019
000004
00002C
000078
0000B4
0000F0
0006E0
007E40
02E000
0B8000
1E0000
2D0050
3C00B4
7C00B4
3D02F0
1FAF80
01A500
ENDCHAR
STARTCHAR Agrave
ENCODING 192
SWIDTH 552 0
DWIDTH 13 0
BBX 14 29 -2 -6
BITMAP
00000500
00000F80
000002E0
00000020
00000000
00000690
00002FE0
0000B4B0
0001D0A0
000380E0
000B41E0
001E01D0
002D02D0
003C03C0
007803C0
00B40780
00F00780
01F55B40
1BFFFFE0
BFD55F80
0BC00F00
0F801E00
1F401E00
2F002E00
3E002E00
7D002E00
F8002F00
40002F40
00001400
ENDCHAR
STARTCHAR Aacute
ENCODING 193
SWIDTH 552 0
DWIDTH 13 0
BBX 15 29 -2 -6
BITMAP
00000010
000000B4
000007E0
00000A00
00000000
00000690
00002FE0
0000B4B0
0001D0A0
000380E0
000B41E0
001E01D0
002D02D0
003C03C0
007803C0
00B40780
00F00780
01F55B40
1BFFFFE0
BFD55F80
0BC00F00
0F801E00
1F401E00
2F002E00
3E002E00
7D002E00
F8002F00
40002F40
00001400
ENDCHAR
STARTCHAR Acircumflex
ENCODING 194
SWIDTH 552 0
DWIDTH 13 0
BBX 15 28 -2 -6
BITMAP
00000050
000003F4
00001E3C
00001404
00000690
00002FE0
0000B4B0
0001D0A0
000380E0
000B41E0
001E01D0
002D02D0
003C03C0
007803C0
00B40780
00F00780
01F55B40
1BFFFFE0
BFD55F80
0BC00F00
0F801E00
1F401E00
2F002E00
3E002E00
7D002E00
F8002F00
40002F40
00001400
ENDCHAR
STARTCHAR Atilde
ENCODING 195
SWIDTH 552 0
DWIDTH 13 0
BBX 16 27 -2 -6
BITMAP
00001A96
00003ABE
00000000
00000690
00002FE0
0000B4B0
0001D0A0
000380E0
000B41E0
001E01D0
002D02D0
003C03C0
007803C0
00B40780
00F00780
01F55B40
1BFFFFE0
BFD55F80
0BC00F00
0F801E00
1F401E00
2F002E00
3E002E00
7D002E00
F8002F00
40002F40
00001400
ENDCHAR
STARTCHAR Adieresis
ENCODING 196
SWIDTH 552 0
DWIDTH 13 0
BBX 16 27 -2 -6
BITMAP
00000A4A
00001F1E
00000000
00000690
00002FE0
0000B4B0
0001D0A0
000380E0
000B41E0
001E01D0
002D02D0
003C03C0
007803C0
00B40780
00F00780
01F55B40
1BFFFFE0
BFD55F80
0BC00F00
0F801E00
1F401E00
2F002E00
3E002E00
7D002E00
F8002F00
40002F40
00001400
ENDCHAR
STARTCHAR Aring
ENCODING 197
SWIDTH 552 0
DWIDTH 13 0
BBX 14 27 -2 -6
BITMAP
00000040
000003A0
00000760
000007D0
00002FF0
0000B4B0
0001D0A0
000380E0
000B41E0
001E01D0
002D02D0
003C03C0
007803C0
00B40780
00F00780
01F55B40
1BFFFFE0
BFD55F80
0BC00F00
0F801E00
1F401E00
2F002E00
3E002E00
7D002E00
F8002F00
40002F40
00001400
ENDCHAR
STARTCHAR AE
ENCODING 198
SWIDTH 869 0
DWIDTH 21 0
BBX 24 24 -2 -6
BITMAP
000006901A90
00002FE1FAB4
0000B4BBD02C
0001D0BF002D
000380FD003C
000B41FC00B8
001E01F802F4
002D02F80190
003C03FC0000
007803FD0000
00B4079F5000
00F0079BF800
01F55BF96000
1BFFFFE00000
BFD55F800000
0BC00F400000
0F801F000080
1F401F4001C0
2F002F400340
3E002FC00E00
7D002FF9B800
F8002FFFE000
40002F550000
000014000000
ENDCHAR
STARTCHAR Ccedilla
ENCODING 199
SWIDTH 548 0
DWIDTH 13 0
BBX 14 28 0 -10
BITMAP
0001A900
000BAB40
003E03C0
00F803D0
02F003D0
07D007D0
0B800BC0
0F402F80
2F000A00
3E000000
7D000000
7C000000
BC000000
F8000000
F8000000
F8000000
F8000000
B8001800
7C003400
3D01E000
1F9B8000
07FE0000
01D00000
02D00000
01BC0000
002C0000
01E00000
01000000
ENDCHAR
STARTCHAR Egrave
ENCODING 200
SWIDTH 523 0
DWIDTH 13 0
BBX 14 28 -1 -5
BITMAP
00001000
0000B800
00001F40
00000240
00000000
00006A00
000BE6D0
002E00E0
00B800F0
01F001E0
03E002D0
03D00BC0
07D00640
03E00000
02F00000
00B94000
007FD000
02D14000
1F400000
3D000000
7C000000
B8000200
BC000A00
BC001C00
7E007400
2F96E000
07FF4000
00540000
ENDCHAR
STARTCHAR Eacute
ENCODING 201
SWIDTH 523 0
DWIDTH 13 0
BBX 14 28 -1 -5
BITMAP
00000040
000007C0
00001F40
00002400
00000000
00006A00
000BE6D0
002E00E0
00B800F0
01F001E0
03E002D0
03D00BC0
07D00640
03E00000
02F00000
00B94000
007FD000
02D14000
1F400000
3D000000
7C000000
B8000200
BC000A00
BC001C00
7E007400
2F96E000
07FF4000
00540000
ENDCHAR
STARTCHAR Ecircumflex
ENCODING 202
SWIDTH 523 0
DWIDTH 13 0
BBX 14 28 -1 -5
BITMAP
00000140
00001FC0
000075E0
00004010
00000000
00006A00
000BE6D0
002E00E0
00B800F0
01F001E0
03E002D0
03D00BC0
07D00640
03E00000
02F00000
00B94000
007FD000
02D14000
1F400000
3D000000
7C000000
B8000200
BC000A00
BC001C00
7E007400
2F96E000
07FF4000
00540000
ENDCHAR
STARTCHAR Edieresis
ENCODING 203
SWIDTH 523 0
DWIDTH 13 0
BBX 14 26 -1 -5
BITMAP
000064A0
0000F5F0
00000000
00006A00
000BE6D0
002E00E0
00B800F0
01F001E0
03E002D0
03D00BC0
07D00640
03E00000
02F00000
00B94000
007FD000
02D14000
1F400000
3D000000
7C000000
B8000200
BC000A00
BC001C00
7E007400
2F96E000
07FF4000
00540000
ENDCHAR
STARTCHAR Igrave
ENCODING 204
SWIDTH 537 0
DWIDTH 13 0
BBX 15 28 -2 -5
BITMAP
00000400
00000F40
000006E0
00000060
00000000
00000180
00002FE0
0000B8E0
0001F0E0
0002E1E0
0003D1E0
0007C2D0
0007C3D0
000783C0
00038780
0002CB80
00018F40
00001F00
005AFFF4
07FE7D00
2F903C00
7D007800
B800B000
B800E000
7D02C000
2F474000
0BFD0000
00500000
ENDCHAR
STARTCHAR Iacute
ENCODING 205
SWIDTH 537 0
DWIDTH 13 0
BBX 15 27 -2 -5
BITMAP
00000078
000002F4
00000640
00000000
00000180
00002FE0
0000B8E0
0001F0E0
0002E1E0
0003D1E0
0007C2D0
0007C3D0
000783C0
00038780
0002CB80
00018F40
00001F00
005AFFF4
07FE7D00
2F903C00
7D007800
B800B000
B800E000
7D02C000
2F474000
0BFD0000
00500000
ENDCHAR
STARTCHAR Icircumflex
ENCODING 206
SWIDTH 537 0
DWIDTH 13 0
BBX 16 27 -2 -5
BITMAP
00000014
000001FC
00000B5E
00000405
00000180
00002FE0
0000B8E0
0001F0E0
0002E1E0
0003D1E0
0007C2D0
0007C3D0
000783C0
00038780
0002CB80
00018F40
00001F00
005AFFF4
07FE7D00
2F903C00
7D007800
B800B000
B800E000
7D02C000
2F474000
0BFD0000
00500000
ENDCHAR
STARTCHAR Idieresis
ENCODING 207
SWIDTH 537 0
DWIDTH 13 0
BBX 16 26 -2 -5
BITMAP
00000A4A
00001F1E
00000000
00000180
00002FE0
0000B8E0
0001F0E0
0002E1E0
0003D1E0
0007C2D0
0007C3D0
000783C0
00038780
0002CB80
00018F40
00001F00
005AFFF4
07FE7D00
2F903C00
7D007800
B800B000
B800E000
7D02C000
2F474000
0BFD0000
00500000
ENDCHAR
STARTCHAR Eth
ENCODING 208
SWIDTH 632 0
DWIDTH 15 0
BBX 16 23 -1 -5
BITMAP
00069400
00BFFE40
01F95BD0
018001F0
001D00B4
007D007C
007C007C
007C003D
00B8003D
00F4007D
1AFA407D
7FFF80BC
51E000B8
02D000F4
03D001F0
07C003D0
07800BC0
0B401F40
0F003D00
1E01F800
3E5BD000
1FFE0000
01500000
ENDCHAR
STARTCHAR Ntilde
ENCODING 209
SWIDTH 541 0
DWIDTH 13 0
BBX 16 26 -1 -5
BITMAP
0002A560
000BAFD0
00000000
00100019
00B800BF
00F801F3
01FC02D3
01FC03CB
02EC079D
03AC0BB8
03AC2FD0
075C0F00
0B1C0F00
0F1C1E00
0E1D1D00
1D1D2D00
2D1D2C00
3C0D3C00
3C0E3800
780E7800
B80EB400
B80BF000
F807E000
F807E000
BC02D000
10000000
ENDCHAR
STARTCHAR Ograve
ENCODING 210
SWIDTH 567 0
DWIDTH 14 0
BBX 13 28 0 -5
BITMAP
00004000
0002E000
00007D00
00000900
00000000
00069400
002FFD00
00BA1E00
01F00F00
02D00F40
07800B40
0B400B40
1F000B40
2E000B40
3D000B40
3C000F40
7C000F00
78001F00
B8001E00
B8002D00
B8003C00
B8007800
B800F400
B801E000
7C03C000
2D1F4000
0FFD0000
01900000
ENDCHAR
STARTCHAR Oacute
ENCODING 211
SWIDTH 567 0
DWIDTH 14 0
BBX 13 28 0 -5
BITMAP
00000400
00002D00
0000B800
00019000
00000000
00069400
002FFD00
00BA1E00
01F00F00
02D00F40
07800B40
0B400B40
1F000B40
2E000B40
3D000B40
3C000F40
7C000F00
78001F00
B8001E00
B8002D00
B8003C00
B8007800
B800F400
B801E000
7C03C000
2D1F4000
0FFD0000
01900000
ENDCHAR
STARTCHAR Ocircumflex
ENCODING 212
SWIDTH 567 0
DWIDTH 14 0
BBX 13 28 0 -5
BITMAP
00001400
0000BD00
00078F00
00050100
00000000
00069400
002FFD00
00BA1E00
01F00F00
02D00F40
07800B40
0B400B40
1F000B40
2E000B40
3D000B40
3C000F40
7C000F00
78001F00
B8001E00
B8002D00
B8003C00
B8007800
B800F400
B801E000
7C03C000
2D1F4000
0FFD0000
01900000
ENDCHAR
STARTCHAR Otilde
ENCODING 213
SWIDTH 567 0
DWIDTH 14 0
BBX 13 26 0 -5
BITMAP
000A9580
002EBF40
00000000
00069400
002FFD00
00BA1E00
01F00F00
02D00F40
07800B40
0B400B40
1F000B40
2E000B40
3D000B40
3C000F40
7C000F00
78001F00
B8001E00
B8002D00
B8003C00
B8007800
B800F400
B801E000
7C03C000
2D1F4000
0FFD0000
01900000
ENDCHAR
STARTCHAR Odieresis
ENCODING 214
SWIDTH 567 0
DWIDTH 14 0
BBX 13 26 0 -5
BITMAP
00068640
000B8F40
00000000
00069400
002FFD00
00BA1E00
01F00F00
02D00F40
07800B40
0B400B40
1F000B40
2E000B40
3D000B40
3C000F40
7C000F00
78001F00
B8001E00
B8002D00
B8003C00
B8007800
B800F400
B801E000
7C03C000
2D1F4000
0FFD0000
01900000
ENDCHAR
STARTCHAR multiply
ENCODING 215
SWIDTH 281 0
DWIDTH 7 0
BBX 9 9 -1 4
BITMAP
050100
0F0B40
075E00
03B800
02E000
03C000
0FD000
28A000
707400
ENDCHAR
STARTCHAR Oslash
ENCODING 216
SWIDTH 597 0
DWIDTH 14 0
BBX 15 24 -1 -5
BITMAP
00000004
0001B57C
0007FFF4
001F93E0
003D03D0
00B80BD0
00F00FE0
02E02FE0
03D07DE0
07C0B5E0
0B81E1E0
0B43C2E0
0F4782D0
0F0F03D0
1F2D07C0
1F3C0780
1EB40B40
1FF00F00
1FD02E00
1FC07C00
0F40B400
1F82E000
3FFF4000
78640000
ENDCHAR
STARTCHAR Ugrave
ENCODING 217
SWIDTH 574 0
DWIDTH 14 0
BBX 15 27 0 -5
BITMAP
00004000
0002E000
00007D00
00000900
00000014
00B800F4
01F401F0
02F002E0
03E003D0
07D007D0
0BC00BC0
0F800B80
0F400F40
1F001F00
2E001E00
2D002D00
3C003D00
7C003C00
78007800
B800B800
B400F800
B402F400
B403F400
B80BB400
7E6DB400
2FF47800
05400000
ENDCHAR
STARTCHAR Uacute
ENCODING 218
SWIDTH 574 0
DWIDTH 14 0
BBX 15 26 0 -5
BITMAP
00000780
00002F40
00006400
00000014
00B800F4
01F401F0
02F002E0
03E003D0
07D007D0
0BC00BC0
0F800B80
0F400F40
1F001F00
2E001E00
2D002D00
3C003D00
7C003C00
78007800
B800B800
B400F800
B402F400
B403F400
B80BB400
7E6DB400
2FF47800
05400000
ENDCHAR
STARTCHAR Ucircumflex
ENCODING 219
SWIDTH 574 0
DWIDTH 14 0
BBX 15 27 0 -5
BITMAP
00000500
00007F00
0001D780
00010040
00000014
00B800F4
01F401F0
02F002E0
03E003D0
07D007D0
0BC00BC0
0F800B80
0F400F40
1F001F00
2E001E00
2D002D00
3C003D00
7C003C00
78007800
B800B800
B400F800
B402F400
B403F400
B80BB400
7E6DB400
2FF47800
05400000
ENDCHAR
STARTCHAR Udieresis
ENCODING 220
SWIDTH 574 0
DWIDTH 14 0
BBX 15 26 0 -5
BITMAP
00029280
0007C780
00000000
00000014
00B800F4
01F401F0
02F002E0
03E003D0
07D007D0
0BC00BC0
0F800B80
0F400F40
1F001F00
2E001E00
2D002D00
3C003D00
7C003C00
78007800
B800B800
B400F800
B402F400
B403F400
B80BB400
7E6DB400
2FF47800
05400000
ENDCHAR
STARTCHAR Yacute
ENCODING 221
SWIDTH 532 0
DWIDTH 13 0
BBX 14 26 0 -5
BITMAP
00001E00
0000BD00
00019000
00500190
02F003D0
03E007D0
07C007C0
0B800B80
0B400F40
0F000F00
1F001E00
2E002E00
2D003D00
3C007C00
3C00F800
7C02F800
3C07B400
3E6DB000
1FE4E000
0001D000
0002C000
00078000
781F0000
BFBD0000
7FF40000
05400000
ENDCHAR
STARTCHAR Thorn
ENCODING 222
SWIDTH 569 0
DWIDTH 14 0
BBX 14 23 -1 -5
BITMAP
00040000
003D0000
007C0000
00B80000
00F55400
00FFBF40
07F407D0
1FE002E0
1FD001F0
03C001F0
078002E0
0B8002E0
0B4007C0
0F000B80
1F002E00
1E00B800
2D0BE000
3FFE0000
7D400000
7C000000
B8000000
F8000000
50000000
ENDCHAR
STARTCHAR germandbls
ENCODING 223
SWIDTH 495 0
DWIDTH 12 0
BBX 14 28 -3 -12
BITMAP
00006900
0002EB40
000B8380
000F0780
002D0B40
003C1E00
00382C00
00743800
00B03800
00E01D00
01D00F00
12C00780
2F8002D0
07C091E0
07B5F1D0
0B2CFB40
0E0E2900
0D0B0000
1D0B0000
2C0B0000
380B0000
380E0000
742D0000
B0780000
B1F00000
FFD00000
BE400000
14000000
ENDCHAR
STARTCHAR agrave
ENCODING 224
SWIDTH 435 0
DWIDTH 10 0
BBX 14 16 -1 -1
BITMAP
00500000
00F80000
002E0000
00060000
00000000
00290000
01EF0000
078B4000
0F074000
1D074050
3C0B01C0
7C0F0340
782E0900
7EAA2800
3F87E000
04014000
ENDCHAR
STARTCHAR aacute
ENCODING 225
SWIDTH 435 0
DWIDTH 10 0
BBX 14 15 -1 -1
BITMAP
00078000
002F4000
00640000
00000000
00290000
01EF0000
078B4000
0F074000
1D074050
3C0B01C0
7C0F0340
782E0900
7EAA2800
3F87E000
04014000
ENDCHAR
STARTCHAR acircumflex
ENCODING 226
SWIDTH 435 0
DWIDTH 10 0
BBX 14 16 -1 -1
BITMAP
00050000
002F4000
01E2C000
01405000
00000000
00290000
01EF0000
078B4000
0F074000
1D074050
3C0B01C0
7C0F0340
782E0900
7EAA2800
3F87E000
04014000
ENDCHAR
STARTCHAR atilde
ENCODING 227
SWIDTH 435 0
DWIDTH 10 0
BBX 14 14 -1 -1
BITMAP
01A96000
03ABE000
00000000
00290000
01EF0000
078B4000
0F074000
1D074050
3C0B01C0
7C0F0340
782E0900
7EAA2800
3F87E000
04014000
ENDCHAR
STARTCHAR adieresis
ENCODING 228
SWIDTH 435 0
DWIDTH 10 0
BBX 14 14 -1 -1
BITMAP
0064A000
00F5F000
00000000
00290000
01EF0000
078B4000
0F074000
1D074050
3C0B01C0
7C0F0340
782E0900
7EAA2800
3F87E000
04014000
ENDCHAR
STARTCHAR aring
ENCODING 229
SWIDTH 435 0
DWIDTH 10 0
BBX 14 15 -1 -1
BITMAP
002E0000
00770000
00290000
00000000
00290000
01EF0000
078B4000
0F074000
1D074050
3C0B01C0
7C0F0340
782E0900
7EAA2800
3F87E000
04014000
ENDCHAR
STARTCHAR ae
ENCODING 230
SWIDTH 594 0
DWIDTH 14 0
BBX 17 11 -1 -1
BITMAP
002D0A8000
01EF7BD000
078BE2C000
0F07C74000
1D0B9E0040
3C0BB40180
7C0F900600
782F402800
7EBB81A000
3F82FF8000
0500640000
ENDCHAR
STARTCHAR ccedilla
ENCODING 231
SWIDTH 363 0
DWIDTH 9 0
BBX 12 16 -1 -6
BITMAP
00A900
03DA00
0F5E00
1D2D00
3C0005
38000C
780034
3800D0
3D0740
1FFD00
039000
074000
06F000
007400
06D000
050000
ENDCHAR
STARTCHAR egrave
ENCODING 232
SWIDTH 372 0
DWIDTH 9 0
BBX 11 16 0 -1
BITMAP
010000
03D000
01B800
001800
000000
01A400
0BBC00
1D3800
387400
B5D004
FB4024
F800A0
F00280
B81E00
7FF400
064000
ENDCHAR
STARTCHAR eacute
ENCODING 233
SWIDTH 372 0
DWIDTH 9 0
BBX 11 16 0 -1
BITMAP
000400
002D00
01B800
019000
000000
01A400
0BBC00
1D3800
387400
B5D004
FB4024
F800A0
F00280
B81E00
7FF400
064000
ENDCHAR
STARTCHAR ecircumflex
ENCODING 234
SWIDTH 372 0
DWIDTH 9 0
BBX 11 16 0 -1
BITMAP
001400
00FD00
078E00
050100
000000
01A400
0BBC00
1D3800
387400
B5D004
FB4024
F800A0
F00280
B81E00
7FF400
064000
ENDCHAR
STARTCHAR edieresis
ENCODING 235
SWIDTH 372 0
DWIDTH 9 0
BBX 11 14 0 -1
BITMAP
068640
0B4F40
000000
01A400
0BBC00
1D3800
387400
B5D004
FB4024
F800A0
F00280
B81E00
7FF400
064000
ENDCHAR
STARTCHAR igrave
ENCODING 236
SWIDTH 274 0
DWIDTH 7 0
BBX 9 16 0 -1
BITMAP
100000
BC0000
1F4000
024000
000000
010000
1F0000
2E0000
3D0000
7C0140
780700
741D00
B07400
75D000
2F4000
040000
ENDCHAR
STARTCHAR iacute
ENCODING 237
SWIDTH 274 0
DWIDTH 7 0
BBX 9 16 0 -1
BITMAP
000400
007C00
01F400
024000
000000
010000
1F0000
2E0000
3D0000
7C0140
780700
741D00
B07400
75D000
2F4000
040000
ENDCHAR
STARTCHAR icircumflex
ENCODING 238
SWIDTH 274 0
DWIDTH 7 0
BBX 9 15 0 -1
BITMAP
014000
0BE000
28B400
101400
010000
1F0000
2E0000
3D0000
7C0140
780700
741D00
B07400
75D000
2F4000
040000
ENDCHAR
STARTCHAR idieresis
ENCODING 239
SWIDTH 274 0
DWIDTH 7 0
BBX 9 14 0 -1
BITMAP
286400
78B800
000000
010000
1F0000
2E0000
3D0000
7C0140
780700
741D00
B07400
75D000
2F4000
040000
ENDCHAR
STARTCHAR eth
ENCODING 240
SWIDTH 393 0
DWIDTH 9 0
BBX 12 17 0 -1
BITMAP
002000
002800
001D60
01BFE0
03EE00
010E00
014E00
1FFE00
2D2E01
7C1D19
BD1DA0
EFAF80
E2FC00
E07400
E1F000
7FC000
150000
ENDCHAR
STARTCHAR ntilde
ENCODING 241
SWIDTH 461 0
DWIDTH 11 0
BBX 14 14 -1 -1
BITMAP
01A96400
03ABF000
00000000
00010000
079FC000
0BBBD000
0FD2D000
0F43C020
1E038090
2D078180
2C0B4700
3C0F1D00
780BF400
50014000
ENDCHAR
STARTCHAR ograve
ENCODING 242
SWIDTH 393 0
DWIDTH 9 0
BBX 12 16 0 -1
BITMAP
010000
03D000
01B800
001800
000000
014000
1FF400
2D2C01
7C1C19
BD1DA0
EFAF40
E2FC00
E07400
E1F000
7FC000
150000
ENDCHAR
STARTCHAR oacute
ENCODING 243
SWIDTH 393 0
DWIDTH 9 0
BBX 12 16 0 -1
BITMAP
000400
002D00
01B800
019000
000000
014000
1FF400
2D2C01
7C1C19
BD1DA0
EFAF40
E2FC00
E07400
E1F000
7FC000
150000
ENDCHAR
STARTCHAR ocircumflex
ENCODING 244
SWIDTH 393 0
DWIDTH 9 0
BBX 12 15 0 -1
BITMAP
005000
02F800
0E2D00
140500
014000
1FF400
2D2C01
7C1C19
BD1DA0
EFAF40
E2FC00
E07400
E1F000
7FC000
150000
ENDCHAR
STARTCHAR otilde
ENCODING 245
SWIDTH 393 0
DWIDTH 9 0
BBX 12 14 0 -1
BITMAP
1A9640
2EBF00
000000
014000
1FF400
2D2C01
7C1C19
BD1DA0
EFAF40
E2FC00
E07400
E1F000
7FC000
150000
ENDCHAR
STARTCHAR odieresis
ENCODING 246
SWIDTH 393 0
DWIDTH 9 0
BBX 12 14 0 -1
BITMAP
064A00
0F5F00
000000
014000
1FF400
2D2C01
7C1C19
BD1DA0
EFAF40
E2FC00
E07400
E1F000
7FC000
150000
ENDCHAR
STARTCHAR divide
ENCODING 247
SWIDTH 350 0
DWIDTH 8 0
BBX 8 9 0 4
BITMAP
0050
01F0
0050
56A9
FFFF
5400
0240
0B80
0100
ENDCHAR
STARTCHAR oslash
ENCODING 248
SWIDTH 406 0
DWIDTH 10 0
BBX 13 13 -1 -2
BITMAP
00005000
0056D000
02FF8000
0B874080
0F474240
2F43AD00
2EEBE000
28AF4000
280E0000
2C2D0000
2FF40000
B9400000
90000000
ENDCHAR
STARTCHAR ugrave
ENCODING 249
SWIDTH 468 0
DWIDTH 11 0
BBX 13 15 0 -1
BITMAP
01400000
03E00000
00B80000
00180000
00000000
1E078000
3C0B4000
780F4000
B41F0080
B01E0180
F02D0700
F02D1D00
F5BE7400
7FCBD000
05010000
ENDCHAR
STARTCHAR uacute
ENCODING 250
SWIDTH 468 0
DWIDTH 11 0
BBX 13 15 0 -1
BITMAP
00010000
001F0000
00BD0000
00900000
00000000
1E078000
3C0B4000
780F4000
B41F0080
B01E0180
F02D0700
F02D1D00
F5BE7400
7FCBD000
05010000
ENDCHAR
STARTCHAR ucircumflex
ENCODING 251
SWIDTH 468 0
DWIDTH 11 0
BBX 13 15 0 -1
BITMAP
00140000
00BE0000
02D74000
01014000
00000000
1E078000
3C0B4000
780F4000
B41F0080
B01E0180
F02D0700
F02D1D00
F5BE7400
7FCBD000
05010000
ENDCHAR
STARTCHAR udieresis
ENCODING 252
SWIDTH 468 0
DWIDTH 11 0
BBX 13 14 0 -1
BITMAP
01928000
03D78000
00000000
00000000
1E078000
3C0B4000
780F4000
B41F0080
B01E0180
F02D0700
F02D1D00
F5BE7400
7FCBD000
05010000
ENDCHAR
STARTCHAR yacute
ENCODING 253
SWIDTH 406 0
DWIDTH 10 0
BBX 10 25 -1 -10
BITMAP
000040
0002D0
001F80
002900
000000
000040
0F02E0
0F02E0
1E02D0
2D03C0
3C0B80
780F40
782F00
78BF00
3FDE00
065D00
002C00
002C00
003800
007800
00B400
00F000
00F000
01E000
01D000
ENDCHAR
STARTCHAR thorn
ENCODING 254
SWIDTH 451 0
DWIDTH 11 0
BBX 16 27 -3 -10
BITMAP
00014000
000F8000
000F4000
000F0000
001F0000
001E0000
002D0000
003C1000
0039FC00
007BAD00
00BD1D00
00F41D01
00E02C09
01D07824
02E4B4A0
03FFE680
03BFFE00
07595000
0B400000
0F000000
0E000000
1E000000
2D000000
3C000000
3C000000
78000000
78000000
ENDCHAR
STARTCHAR ydieresis
ENCODING 255
SWIDTH 406 0
DWIDTH 10 0
BBX 10 23 -1 -10
BITMAP
01A190
02D3D0
000000
000040
0F02E0
0F02E0
1E02D0
2D03C0
3C0B80
780F40
782F00
78BF00
3FDE00
065D00
002C00
002C00
003800
007800
00B400
00F000
00F000
01E000
01D000
ENDCHAR
STARTCHAR dotlessi
ENCODING 305
SWIDTH 274 0
DWIDTH 7 0
BBX 9 11 0 -1
BITMAP
010000
1F0000
2E0000
3D0000
7C0140
780700
741D00
B07400
75D000
2F4000
040000
ENDCHAR
STARTCHAR Lslash
ENCODING 321
SWIDTH 492 0
DWIDTH 12 0
BBX 16 23 -3 -5
BITMAP
00000068
000002FE
000007DE
00000F5E
00001E2D
00002D78
00003EF0
00007FD0
01AAFE00
00BFF800
0000B400
0000F100
0006FF40
007FE900
00A7C000
00078000
000B4000
000E0000
1BFD0000
7EFE0010
7AEBE5A0
2E42FFD0
00001A40
ENDCHAR
STARTCHAR lslash
ENCODING 322
SWIDTH 218 0
DWIDTH 5 0
BBX 9 18 -2 -1
BITMAP
001400
003D00
003D00
007C00
007800
00B400
00F400
01FF80
3FFA00
7AD000
03C000
03C000
078000
0B4000
0F0000
0F0000
1E0000
040000
ENDCHAR
STARTCHAR OE
ENCODING 338
SWIDTH 918 0
DWIDTH 22 0
BBX 23 23 0 -5
BITMAP
000694001A40
002FFD02EAE0
00BA1E1F40B4
01F00F7D00B4
02D00FF800B4
07800BF401F0
0B400BF007D0
1F000BF00680
2E000BF00000
3D000BF80000
3C000F7D5000
7C000F6FF000
78001FE59000
B8001F800000
B8002F000000
B8003D000000
B8007D000140
B800FD000300
B801FE000A00
7C03EF402C00
2D1F4FE5F400
0FFD02FF8000
019000140000
ENDCHAR
STARTCHAR oe
ENCODING 339
SWIDTH 583 0
DWIDTH 14 0
BBX 16 11 0 -1
BITMAP
01402A00
1FF5EF40
2D2F8B00
7C1F1E00
BE1E7801
EBAFE006
E2BE4018
E07D0070
E1FE0680
7FDBFE00
15019000
ENDCHAR
STARTCHAR Scaron
ENCODING 352
SWIDTH 474 0
DWIDTH 11 0
BBX 14 28 -1 -5
BITMAP
00005010
000079E0
00002F80
00000500
00000000
0006A900
002F9F40
00B80780
02E007C0
03C00780
07C00B80
07C00F40
03D00400
02F40000
00FC0000
007F0000
001F8000
000BC000
0003D000
0002E000
0001E000
6801D000
F401D000
F402C000
F8074000
7D1E0000
2FF80000
06900000
ENDCHAR
STARTCHAR scaron
ENCODING 353
SWIDTH 351 0
DWIDTH 8 0
BBX 8 17 0 -1
BITMAP
0501
079E
02F4
0050
0000
0180
07D0
0FC0
0F80
1EC0
35E0
90F0
00B4
2478
7C74
3ED0
1A40
ENDCHAR
STARTCHAR Ydieresis
ENCODING 376
SWIDTH 532 0
DWIDTH 13 0
BBX 14 26 0 -5
BITMAP
00068640
000B8F40
00000000
00500190
02F003D0
03E007D0
07C007C0
0B800B80
0B400F40
0F000F00
1F001E00
2E002E00
2D003D00
3C007C00
3C00F800
7C02F800
3C07B400
3E6DB000
1FE4E000
0001D000
0002C000
00078000
781F0000
BFBD0000
7FF40000
05400000
ENDCHAR
STARTCHAR Zcaron
ENCODING 381
SWIDTH 455 0
DWIDTH 11 0
BBX 15 26 -2 -4
BITMAP
00005014
000079E0
00002F80
00000500
00155540
00BFFFE0
00FA96F0
004002E0
000003D0
00000B80
00001F40
00003E00
0000B800
0002F000
0007C000
001F4000
003D0000
00B80000
02E00000
07C00000
0F400000
2E000000
3C000000
B56AA400
FFFFF800
BEAAF000
ENDCHAR
STARTCHAR zcaron
ENCODING 382
SWIDTH 349 0
DWIDTH 8 0
BBX 13 26 -3 -11
BITMAP
00140500
000E2C00
0007E000
00014000
00000000
00565000
02FFF000
0391D000
0002C000
00078000
000F0040
002D0180
00BF8600
01F6E800
0082E000
002F8000
01E78000
07874000
1D0F0000
381E0000
B03C0000
E0780000
E0F00000
F7D00000
BF800000
15000000
ENDCHAR
STARTCHAR circumflex
ENCODING 710
SWIDTH 567 0
DWIDTH 14 0
BBX 6 4 5 13
BITMAP
0140
0BD0
78F0
5010
ENDCHAR
STARTCHAR caron
ENCODING 711
SWIDTH 567 0
DWIDTH 14 0
BBX 6 4 5 13
BITMAP
5010
75E0
2F40
0400
ENDCHAR
STARTCHAR breve
ENCODING 728
SWIDTH 567 0
DWIDTH 14 0
BBX 7 3 5 13
BITMAP
A074
B5E0
2F80
ENDCHAR
STARTCHAR dotaccent
ENCODING 729
SWIDTH 567 0
DWIDTH 14 0
BBX 3 2 7 14
BITMAP
64
F4
ENDCHAR
STARTCHAR ring
ENCODING 730
SWIDTH 567 0
DWIDTH 14 0
BBX 4 3 6 13
BITMAP
2E
66
29
ENDCHAR
STARTCHAR ogonek
ENCODING 731
SWIDTH 567 0
DWIDTH 14 0
BBX 6 4 5 -3
BITMAP
3400
B010
BAD0
2900
ENDCHAR
STARTCHAR tilde
ENCODING 732
SWIDTH 567 0
DWIDTH 14 0
BBX 8 2 4 14
BITMAP
2A96
7AFE
ENDCHAR
STARTCHAR hungarumlaut
ENCODING 733
SWIDTH 567 0
DWIDTH 14 0
BBX 9 4 4 13
BITMAP
010100
0B4B40
7E7E00
A4A000
ENDCHAR
STARTCHAR endash
ENCODING 8211
SWIDTH 353 0
DWIDTH 8 0
BBX 9 3 -1 6
BITMAP
055540
3FFFC0
655500
ENDCHAR
STARTCHAR emdash
ENCODING 8212
SWIDTH 508 0
DWIDTH 12 0
BBX 13 3 -1 6
BITMAP
15555500
7FFFFF80
25555640
ENDCHAR
STARTCHAR quoteleft
ENCODING 8216
SWIDTH 155 0
DWIDTH 4 0
BBX 3 6 1 11
BITMAP
04
24
70
B8
F8
B4
ENDCHAR
STARTCHAR quoteright
ENCODING 8217
SWIDTH 154 0
DWIDTH 4 0
BBX 4 5 1 11
BITMAP
3D
7D
2C
24
60
ENDCHAR
STARTCHAR quotesinglbase
ENCODING 8218
SWIDTH 188 0
DWIDTH 5 0
BBX 3 6 -1 -3
BITMAP
14
BC
BC
38
30
90
ENDCHAR
STARTCHAR quotedblleft
ENCODING 8220
SWIDTH 289 0
DWIDTH 7 0
BBX 6 6 1 11
BITMAP
0410
2460
70D0
BAE0
FAF0
B5D0
ENDCHAR
STARTCHAR quotedblright
ENCODING 8221
SWIDTH 288 0
DWIDTH 7 0
BBX 7 6 1 11
BITMAP
0410
7DF4
7EF4
2C70
24A0
6080
ENDCHAR
STARTCHAR quotedblbase
ENCODING 8222
SWIDTH 323 0
DWIDTH 8 0
BBX 6 6 -1 -3
BITMAP
1450
BDF0
BEF0
38A0
30D0
9140
ENDCHAR
STARTCHAR bullet
ENCODING 8226
SWIDTH 180 0
DWIDTH 4 0
BBX 5 6 -1 4
BITMAP
0500
1F40
3F80
7F80
3F40
2D00
ENDCHAR
STARTCHAR ellipsis
ENCODING 8230
SWIDTH 614 0
DWIDTH 15 0
BBX 13 3 -1 -1
BITMAP
290A0680
BD2F0FC0
64140500
ENDCHAR
STARTCHAR perthousand
ENCODING 8240
SWIDTH 851 0
DWIDTH 20 0
BBX 20 19 0 -1
BITMAP
0050006000
07F402D000
0E2C078000
2C1C0E0000
381C2C0000
342C740000
3474E00000
2DE2C00000
0B87400000
000E000000
002C6E01F4
00B5E747AC
01E2C28E0D
03C3429C0D
0B4703AC1D
1E0707682C
3C074E2C74
B402F80FE0
5000500140
ENDCHAR
STARTCHAR guilsinglleft
ENCODING 8249
SWIDTH 202 0
DWIDTH 5 0
BBX 6 10 -1 -1
BITMAP
01D0
0740
1E00
3800
B400
7400
2C00
1D00
0A00
0100
ENDCHAR
STARTCHAR guilsinglright
ENCODING 8250
SWIDTH 202 0
DWIDTH 5 0
BBX 6 11 -2 -1
BITMAP
0400
0A00
0700
0380
02D0
01E0
02C0
0B40
1D00
7400
4000
ENDCHAR
STARTCHAR fraction
ENCODING 8260
SWIDTH 600 0
DWIDTH 14 0
BBX 14 19 1 -1
BITMAP
00000050
000003C0
00000B40
00001D00
00003800
0000B000
0001D000
00038000
000B0000
001D0000
00780000
00B00000
02D00000
07800000
0F000000
2D000000
78000000
F4000000
40000000
ENDCHAR
STARTCHAR Euro
ENCODING 8364
SWIDTH 334 0
DWIDTH 8 0
BBX 10 15 -1 1
BITMAP
000680
002DA0
00B470
01D000
03C000
0B9000
7FFF00
1E0000
BFFC00
6D0000
1C0000
1C0100
0D0A00
07A800
005000
ENDCHAR
STARTCHAR minus
ENCODING 8722
SWIDTH 353 0
DWIDTH 8 0
BBX 9 3 -1 6
BITMAP
055540
3FFFC0
655500
ENDCHAR
STARTCHAR fi
ENCODING 64257
SWIDTH 549 0
DWIDTH 13 0
BBX 18 29 -3 -12
BITMAP
0006800000
000BC00400
000B803800
000B807800
000B401000
000F000000
000E000000
001D001000
002C02D000
003803C000
0079AF8000
00BE4B4020
02E00B40A0
03D00B0280
02E00E0B00
02F80B6C00
039E07E000
074B404000
0B03800000
0B03800000
0E03800000
1D03800000
2D07400000
2C0F000000
382D000000
78B8000000
7FE0000000
3F80000000
0400000000
ENDCHAR
STARTCHAR fl
ENCODING 64258
SWIDTH 516 0
DWIDTH 12 0
BBX 16 29 -3 -12
BITMAP
00068014
000BC03D
000B803D
000B803C
000B4078
000F00B8
000E00B4
001D00F0
002C01E0
003802E0
0079AFD0
00BE43C0
02E00780
03D00780
02E00B40
02F80F00
039E0E00
074B4500
0B038000
0B038000
0E038000
1D038000
2D074000
2C0F0000
382D0000
78B80000
7FE00000
3F800000
04000000
ENDCHAR
STARTCHAR .notdef
ENCODING -1
SWIDTH 280 0
DWIDTH 7 0
BBX 1 1 0 0
BITMAP
00
ENDCHAR
ENDFONT
